<svg xmlns="http://www.w3.org/2000/svg" viewBox="0 0 1024 1024" width="1024" height="1024">
<defs><clipPath id="squircle"><path d="M 1023.00 512.00 L 1022.97 613.20 L 1022.88 645.52 L 1022.72 669.01 L 1022.50 688.14 L 1022.22 704.55 L 1021.88 719.07 L 1021.47 732.18 L 1021.00 744.19 L 1020.47 755.31 L 1019.88 765.68 L 1019.22 775.43 L 1018.50 784.63 L 1017.72 793.36 L 1016.87 801.66 L 1015.96 809.59 L 1014.99 817.18 L 1013.95 824.46 L 1012.85 831.46 L 1011.68 838.20 L 1010.44 844.69 L 1009.14 850.96 L 1007.78 857.03 L 1006.35 862.89 L 1004.85 868.57 L 1003.28 874.08 L 1001.65 879.42 L 999.95 884.60 L 998.18 889.63 L 996.34 894.52 L 994.43 899.27 L 992.45 903.88 L 990.40 908.37 L 988.27 912.74 L 986.08 916.99 L 983.81 921.13 L 981.47 925.15 L 979.05 929.07 L 976.55 932.88 L 973.98 936.59 L 971.33 940.20 L 968.60 943.72 L 965.79 947.14 L 962.89 950.46 L 959.91 953.70 L 956.85 956.85 L 953.70 959.91 L 950.46 962.89 L 947.14 965.79 L 943.72 968.60 L 940.20 971.33 L 936.59 973.98 L 932.88 976.55 L 929.07 979.05 L 925.15 981.47 L 921.13 983.81 L 916.99 986.08 L 912.74 988.27 L 908.37 990.40 L 903.88 992.45 L 899.27 994.43 L 894.52 996.34 L 889.63 998.18 L 884.60 999.95 L 879.42 1001.65 L 874.08 1003.28 L 868.57 1004.85 L 862.89 1006.35 L 857.03 1007.78 L 850.96 1009.14 L 844.69 1010.44 L 838.20 1011.68 L 831.46 1012.85 L 824.46 1013.95 L 817.18 1014.99 L 809.59 1015.96 L 801.66 1016.87 L 793.36 1017.72 L 784.63 1018.50 L 775.43 1019.22 L 765.68 1019.88 L 755.31 1020.47 L 744.19 1021.00 L 732.18 1021.47 L 719.07 1021.88 L 704.55 1022.22 L 688.14 1022.50 L 669.01 1022.72 L 645.52 1022.88 L 613.20 1022.97 L 512.00 1023.00 L 410.80 1022.97 L 378.48 1022.88 L 354.99 1022.72 L 335.86 1022.50 L 319.45 1022.22 L 304.93 1021.88 L 291.82 1021.47 L 279.81 1021.00 L 268.69 1020.47 L 258.32 1019.88 L 248.57 1019.22 L 239.37 1018.50 L 230.64 1017.72 L 222.34 1016.87 L 214.41 1015.96 L 206.82 1014.99 L 199.54 1013.95 L 192.54 1012.85 L 185.80 1011.68 L 179.31 1010.44 L 173.04 1009.14 L 166.97 1007.78 L 161.11 1006.35 L 155.43 1004.85 L 149.92 1003.28 L 144.58 1001.65 L 139.40 999.95 L 134.37 998.18 L 129.48 996.34 L 124.73 994.43 L 120.12 992.45 L 115.63 990.40 L 111.26 988.27 L 107.01 986.08 L 102.87 983.81 L 98.85 981.47 L 94.93 979.05 L 91.12 976.55 L 87.41 973.98 L 83.80 971.33 L 80.28 968.60 L 76.86 965.79 L 73.54 962.89 L 70.30 959.91 L 67.15 956.85 L 64.09 953.70 L 61.11 950.46 L 58.21 947.14 L 55.40 943.72 L 52.67 940.20 L 50.02 936.59 L 47.45 932.88 L 44.95 929.07 L 42.53 925.15 L 40.19 921.13 L 37.92 916.99 L 35.73 912.74 L 33.60 908.37 L 31.55 903.88 L 29.57 899.27 L 27.66 894.52 L 25.82 889.63 L 24.05 884.60 L 22.35 879.42 L 20.72 874.08 L 19.15 868.57 L 17.65 862.89 L 16.22 857.03 L 14.86 850.96 L 13.56 844.69 L 12.32 838.20 L 11.15 831.46 L 10.05 824.46 L 9.01 817.18 L 8.04 809.59 L 7.13 801.66 L 6.28 793.36 L 5.50 784.63 L 4.78 775.43 L 4.12 765.68 L 3.53 755.31 L 3.00 744.19 L 2.53 732.18 L 2.12 719.07 L 1.78 704.55 L 1.50 688.14 L 1.28 669.01 L 1.12 645.52 L 1.03 613.20 L 1.00 512.00 L 1.03 410.80 L 1.12 378.48 L 1.28 354.99 L 1.50 335.86 L 1.78 319.45 L 2.12 304.93 L 2.53 291.82 L 3.00 279.81 L 3.53 268.69 L 4.12 258.32 L 4.78 248.57 L 5.50 239.37 L 6.28 230.64 L 7.13 222.34 L 8.04 214.41 L 9.01 206.82 L 10.05 199.54 L 11.15 192.54 L 12.32 185.80 L 13.56 179.31 L 14.86 173.04 L 16.22 166.97 L 17.65 161.11 L 19.15 155.43 L 20.72 149.92 L 22.35 144.58 L 24.05 139.40 L 25.82 134.37 L 27.66 129.48 L 29.57 124.73 L 31.55 120.12 L 33.60 115.63 L 35.73 111.26 L 37.92 107.01 L 40.19 102.87 L 42.53 98.85 L 44.95 94.93 L 47.45 91.12 L 50.02 87.41 L 52.67 83.80 L 55.40 80.28 L 58.21 76.86 L 61.11 73.54 L 64.09 70.30 L 67.15 67.15 L 70.30 64.09 L 73.54 61.11 L 76.86 58.21 L 80.28 55.40 L 83.80 52.67 L 87.41 50.02 L 91.12 47.45 L 94.93 44.95 L 98.85 42.53 L 102.87 40.19 L 107.01 37.92 L 111.26 35.73 L 115.63 33.60 L 120.12 31.55 L 124.73 29.57 L 129.48 27.66 L 134.37 25.82 L 139.40 24.05 L 144.58 22.35 L 149.92 20.72 L 155.43 19.15 L 161.11 17.65 L 166.97 16.22 L 173.04 14.86 L 179.31 13.56 L 185.80 12.32 L 192.54 11.15 L 199.54 10.05 L 206.82 9.01 L 214.41 8.04 L 222.34 7.13 L 230.64 6.28 L 239.37 5.50 L 248.57 4.78 L 258.32 4.12 L 268.69 3.53 L 279.81 3.00 L 291.82 2.53 L 304.93 2.12 L 319.45 1.78 L 335.86 1.50 L 354.99 1.28 L 378.48 1.12 L 410.80 1.03 L 512.00 1.00 L 613.20 1.03 L 645.52 1.12 L 669.01 1.28 L 688.14 1.50 L 704.55 1.78 L 719.07 2.12 L 732.18 2.53 L 744.19 3.00 L 755.31 3.53 L 765.68 4.12 L 775.43 4.78 L 784.63 5.50 L 793.36 6.28 L 801.66 7.13 L 809.59 8.04 L 817.18 9.01 L 824.46 10.05 L 831.46 11.15 L 838.20 12.32 L 844.69 13.56 L 850.96 14.86 L 857.03 16.22 L 862.89 17.65 L 868.57 19.15 L 874.08 20.72 L 879.42 22.35 L 884.60 24.05 L 889.63 25.82 L 894.52 27.66 L 899.27 29.57 L 903.88 31.55 L 908.37 33.60 L 912.74 35.73 L 916.99 37.92 L 921.13 40.19 L 925.15 42.53 L 929.07 44.95 L 932.88 47.45 L 936.59 50.02 L 940.20 52.67 L 943.72 55.40 L 947.14 58.21 L 950.46 61.11 L 953.70 64.09 L 956.85 67.15 L 959.91 70.30 L 962.89 73.54 L 965.79 76.86 L 968.60 80.28 L 971.33 83.80 L 973.98 87.41 L 976.55 91.12 L 979.05 94.93 L 981.47 98.85 L 983.81 102.87 L 986.08 107.01 L 988.27 111.26 L 990.40 115.63 L 992.45 120.12 L 994.43 124.73 L 996.34 129.48 L 998.18 134.37 L 999.95 139.40 L 1001.65 144.58 L 1003.28 149.92 L 1004.85 155.43 L 1006.35 161.11 L 1007.78 166.97 L 1009.14 173.04 L 1010.44 179.31 L 1011.68 185.80 L 1012.85 192.54 L 1013.95 199.54 L 1014.99 206.82 L 1015.96 214.41 L 1016.87 222.34 L 1017.72 230.64 L 1018.50 239.37 L 1019.22 248.57 L 1019.88 258.32 L 1020.47 268.69 L 1021.00 279.81 L 1021.47 291.82 L 1021.88 304.93 L 1022.22 319.45 L 1022.50 335.86 L 1022.72 354.99 L 1022.88 378.48 L 1022.97 410.80 Z"/></clipPath></defs>
<g clip-path="url(#squircle)">

  <defs>
    <linearGradient id="bg" x1="0" y1="0" x2="1" y2="1">
      <stop offset="0%" stop-color="#F2A33C"/>
      <stop offset="58%" stop-color="#ED6E2D"/>
      <stop offset="100%" stop-color="#E2551F"/>
    </linearGradient>
    <radialGradient id="glow" cx="0.27" cy="0.18" r="0.75">
      <stop offset="0%" stop-color="#FFE9C4" stop-opacity="0.55"/>
      <stop offset="45%" stop-color="#FFD9A0" stop-opacity="0.12"/>
      <stop offset="100%" stop-color="#FFFFFF" stop-opacity="0"/>
    </radialGradient>
    <filter id="lift" x="-20%" y="-20%" width="140%" height="150%">
      <feDropShadow dx="0" dy="22" stdDeviation="30" flood-color="#A63A12" flood-opacity="0.38"/>
    </filter>
  </defs>

  <!-- full-bleed background: system applies its own mask -->
  <rect width="1024" height="1024" fill="url(#bg)"/>
  <rect width="1024" height="1024" fill="url(#glow)"/>

  <!-- speech bubble with hand-flick tail, one merged silhouette -->
  <g filter="url(#lift)">
    <path fill="#FFFDF8" d="
      M 358 236
      L 666 236
      C 764 236, 844 316, 844 414
      L 844 522
      C 844 620, 764 700, 666 700
      L 486 700
      C 452 766, 372 812, 278 830
      C 316 782, 330 742, 328 696
      C 242 674, 180 604, 180 522
      L 180 414
      C 180 316, 260 236, 358 236
      Z"/>
  </g>

  <!-- ¥ : two diagonals meeting the stem, double crossbar, round hand strokes -->
  <g stroke="#D14C1D" stroke-width="62" stroke-linecap="round" fill="none">
    <path d="M 394 314 L 512 468"/>
    <path d="M 630 314 L 512 468"/>
    <path d="M 512 468 L 512 634"/>
    <path d="M 420 516 L 604 516"/>
    <path d="M 420 586 L 604 586"/>
  </g>

</g>
</svg>